# xmcd
#
# Track frame offsets: 
#        150
#        13825
#        29275
#        45642
#        60937
#        75820
#        93565
#        107935
#        120045
#        137592
#
# Disc length: 2030 seconds
#
# Revision: 2
# Processed by: cddbd v1.4PL0 Copyright (c) Steve Scherf et al.
# Submitted via: ExactAudioCopy v0.90a11
#
DISCID=6c07ec0a
DTITLE=John Conlee - Greatest Hits Vol. 2
DYEAR=1900
DGENRE=
TTITLE0=Lifetime Guarantee
TTITLE1=Years After You
TTITLE2=In My Eyes
TTITLE3=As Long As I'm Rockin' With You
TTITLE4=I'm Only In It For The Love
TTITLE5=The Old School
TTITLE6=Way Back
TTITLE7=Before My Time
TTITLE8=Working Man
TTITLE9=Blue Highway
EXTD=
EXTT0=
EXTT1=
EXTT2=
EXTT3=
EXTT4=
EXTT5=
EXTT6=
EXTT7=
EXTT8=
EXTT9=
PLAYORDER=
